<svg xmlns="http://www.w3.org/2000/svg" viewBox="0 0 32 32">
  <rect width="32" height="32" rx="6" fill="#1f4e79"/>
  <g transform="translate(4, 3) scale(0.75)" fill="white">
    <path d="M16 4c-2 0-4 1-5.5 2.5C9 8 8.5 10 9 12c-3-1-6 0-7 2s0 5 2 6c1 .5 2 .5 3 0l4-2c1 2 3 4 5 5 2-1 4-3 5-5l4 2c1 .5 2 .5 3 0 2-1 3-4 2-6s-4-3-7-2c.5-2 0-4-1.5-5.5C19.5 5 18 4 16 4z"/>
    <path d="M16 8c-1 0-2 .5-2.5 1.5S13 11.5 14 12.5l2 2 2-2c1-1 1-2 .5-3S17 8 16 8z" fill="#1f4e79"/>
    <path d="M12 22l4 6 4-6" fill="none" stroke="white" stroke-width="1.5" stroke-linecap="round" stroke-linejoin="round"/>
  </g>
</svg>
